<mxfile host="app.diagrams.net" modified="2024-04-04T00:21:48.736Z" agent="Mozilla/5.0 (Windows NT 10.0; Win64; x64) AppleWebKit/537.36 (KHTML, like Gecko) Chrome/122.0.0.0 Safari/537.36" etag="SZjHqsSgqGHMiEn9E740" version="24.2.2" type="github">
  <diagram id="R2lEEEUBdFMjLlhIrx00" name="Page-1">
    <mxGraphModel dx="1477" dy="660" grid="1" gridSize="10" guides="1" tooltips="1" connect="1" arrows="1" fold="1" page="1" pageScale="1" pageWidth="850" pageHeight="1100" math="0" shadow="0" extFonts="Permanent Marker^https://fonts.googleapis.com/css?family=Permanent+Marker">
      <root>
        <mxCell id="0" />
        <mxCell id="1" parent="0" />
        <mxCell id="YkJlxvteugCw9PptVSyT-5" value="L1: EMPLOYEE" style="text;html=1;align=center;verticalAlign=middle;resizable=0;points=[];autosize=1;strokeColor=none;fillColor=none;" parent="1" vertex="1">
          <mxGeometry x="50" y="125" width="110" height="30" as="geometry" />
        </mxCell>
        <mxCell id="YkJlxvteugCw9PptVSyT-7" value="&lt;u&gt;Emp_id&lt;/u&gt;" style="whiteSpace=wrap;html=1;align=center;" parent="1" vertex="1">
          <mxGeometry x="160" y="120" width="100" height="40" as="geometry" />
        </mxCell>
        <mxCell id="YkJlxvteugCw9PptVSyT-8" value="Emp_first" style="whiteSpace=wrap;html=1;align=center;" parent="1" vertex="1">
          <mxGeometry x="260" y="120" width="100" height="40" as="geometry" />
        </mxCell>
        <mxCell id="YkJlxvteugCw9PptVSyT-9" value="Emp_middle" style="whiteSpace=wrap;html=1;align=center;" parent="1" vertex="1">
          <mxGeometry x="360" y="120" width="100" height="40" as="geometry" />
        </mxCell>
        <mxCell id="YkJlxvteugCw9PptVSyT-10" value="Emp_last" style="whiteSpace=wrap;html=1;align=center;" parent="1" vertex="1">
          <mxGeometry x="460" y="120" width="100" height="40" as="geometry" />
        </mxCell>
        <mxCell id="YkJlxvteugCw9PptVSyT-11" value="L2: MANAGER" style="text;html=1;align=center;verticalAlign=middle;resizable=0;points=[];autosize=1;strokeColor=none;fillColor=none;" parent="1" vertex="1">
          <mxGeometry x="60" y="245" width="100" height="30" as="geometry" />
        </mxCell>
        <mxCell id="YkJlxvteugCw9PptVSyT-12" value="&lt;u&gt;Mngr_emp_id&lt;/u&gt;" style="whiteSpace=wrap;html=1;align=center;" parent="1" vertex="1">
          <mxGeometry x="160" y="240" width="100" height="40" as="geometry" />
        </mxCell>
        <mxCell id="YkJlxvteugCw9PptVSyT-13" value="Mngr_bonus" style="whiteSpace=wrap;html=1;align=center;" parent="1" vertex="1">
          <mxGeometry x="260" y="240" width="100" height="40" as="geometry" />
        </mxCell>
        <mxCell id="YkJlxvteugCw9PptVSyT-26" value="L3: ASSIGNMENT" style="text;html=1;align=center;verticalAlign=middle;resizable=0;points=[];autosize=1;strokeColor=none;fillColor=none;" parent="1" vertex="1">
          <mxGeometry x="40" y="365" width="120" height="30" as="geometry" />
        </mxCell>
        <mxCell id="YkJlxvteugCw9PptVSyT-27" value="Asgt_hours" style="whiteSpace=wrap;html=1;align=center;" parent="1" vertex="1">
          <mxGeometry x="370" y="360" width="100" height="40" as="geometry" />
        </mxCell>
        <mxCell id="YkJlxvteugCw9PptVSyT-29" value="Emp_gender" style="whiteSpace=wrap;html=1;align=center;" parent="1" vertex="1">
          <mxGeometry x="560" y="120" width="100" height="40" as="geometry" />
        </mxCell>
        <mxCell id="YkJlxvteugCw9PptVSyT-30" value="Emp_salary" style="whiteSpace=wrap;html=1;align=center;" parent="1" vertex="1">
          <mxGeometry x="660" y="120" width="100" height="40" as="geometry" />
        </mxCell>
        <mxCell id="YkJlxvteugCw9PptVSyT-32" value="L5: INTERNAL PROJECT" style="text;html=1;align=center;verticalAlign=middle;resizable=0;points=[];autosize=1;strokeColor=none;fillColor=none;" parent="1" vertex="1">
          <mxGeometry x="680" y="365" width="160" height="30" as="geometry" />
        </mxCell>
        <mxCell id="YkJlxvteugCw9PptVSyT-33" value="Intprj_prating" style="whiteSpace=wrap;html=1;align=center;" parent="1" vertex="1">
          <mxGeometry x="940" y="360" width="115" height="40" as="geometry" />
        </mxCell>
        <mxCell id="YkJlxvteugCw9PptVSyT-34" value="L6: EXTERNAL PROJECT" style="text;html=1;align=center;verticalAlign=middle;resizable=0;points=[];autosize=1;strokeColor=none;fillColor=none;" parent="1" vertex="1">
          <mxGeometry x="670" y="485" width="170" height="30" as="geometry" />
        </mxCell>
        <mxCell id="YkJlxvteugCw9PptVSyT-35" value="Extprj_ccost" style="whiteSpace=wrap;html=1;align=center;" parent="1" vertex="1">
          <mxGeometry x="940" y="480" width="110" height="40" as="geometry" />
        </mxCell>
        <mxCell id="YkJlxvteugCw9PptVSyT-36" value="L4: PROJECT" style="text;html=1;align=center;verticalAlign=middle;resizable=0;points=[];autosize=1;strokeColor=none;fillColor=none;" parent="1" vertex="1">
          <mxGeometry x="60" y="485" width="100" height="30" as="geometry" />
        </mxCell>
        <mxCell id="YkJlxvteugCw9PptVSyT-37" value="&lt;u&gt;Prj_no&lt;/u&gt;" style="whiteSpace=wrap;html=1;align=center;" parent="1" vertex="1">
          <mxGeometry x="160" y="480" width="100" height="40" as="geometry" />
        </mxCell>
        <mxCell id="YkJlxvteugCw9PptVSyT-38" value="Prj_budget" style="whiteSpace=wrap;html=1;align=center;" parent="1" vertex="1">
          <mxGeometry x="260" y="480" width="100" height="40" as="geometry" />
        </mxCell>
        <mxCell id="YkJlxvteugCw9PptVSyT-39" value="Prj_startdate" style="whiteSpace=wrap;html=1;align=center;" parent="1" vertex="1">
          <mxGeometry x="360" y="480" width="100" height="40" as="geometry" />
        </mxCell>
        <mxCell id="YkJlxvteugCw9PptVSyT-40" value="Prj_description" style="whiteSpace=wrap;html=1;align=center;" parent="1" vertex="1">
          <mxGeometry x="460" y="480" width="100" height="40" as="geometry" />
        </mxCell>
        <mxCell id="YkJlxvteugCw9PptVSyT-41" value="Prj_acost" style="whiteSpace=wrap;html=1;align=center;" parent="1" vertex="1">
          <mxGeometry x="560" y="480" width="100" height="40" as="geometry" />
        </mxCell>
        <mxCell id="YkJlxvteugCw9PptVSyT-42" value="&lt;u&gt;Intprj_prj_no&lt;/u&gt;" style="whiteSpace=wrap;html=1;align=center;" parent="1" vertex="1">
          <mxGeometry x="840" y="360" width="100" height="40" as="geometry" />
        </mxCell>
        <mxCell id="YkJlxvteugCw9PptVSyT-43" value="&lt;u&gt;Extprj_prj_no&lt;/u&gt;" style="whiteSpace=wrap;html=1;align=center;" parent="1" vertex="1">
          <mxGeometry x="840" y="480" width="100" height="40" as="geometry" />
        </mxCell>
        <mxCell id="YkJlxvteugCw9PptVSyT-44" value="&lt;u&gt;Asgt_intprj_prj_no&lt;/u&gt;" style="whiteSpace=wrap;html=1;align=center;" parent="1" vertex="1">
          <mxGeometry x="260" y="360" width="110" height="40" as="geometry" />
        </mxCell>
        <mxCell id="YkJlxvteugCw9PptVSyT-45" value="&lt;u&gt;Asgt_emp_id&lt;/u&gt;" style="whiteSpace=wrap;html=1;align=center;" parent="1" vertex="1">
          <mxGeometry x="160" y="360" width="100" height="40" as="geometry" />
        </mxCell>
        <mxCell id="YkJlxvteugCw9PptVSyT-54" value="L7: VENDOR" style="text;html=1;align=center;verticalAlign=middle;resizable=0;points=[];autosize=1;strokeColor=none;fillColor=none;" parent="1" vertex="1">
          <mxGeometry x="70" y="605" width="90" height="30" as="geometry" />
        </mxCell>
        <mxCell id="YkJlxvteugCw9PptVSyT-55" value="&lt;u&gt;Vdr_name&lt;/u&gt;" style="whiteSpace=wrap;html=1;align=center;" parent="1" vertex="1">
          <mxGeometry x="160" y="600" width="100" height="40" as="geometry" />
        </mxCell>
        <mxCell id="YkJlxvteugCw9PptVSyT-56" value="Vdr_street" style="whiteSpace=wrap;html=1;align=center;" parent="1" vertex="1">
          <mxGeometry x="260" y="600" width="100" height="40" as="geometry" />
        </mxCell>
        <mxCell id="YkJlxvteugCw9PptVSyT-57" value="Vdr_city" style="whiteSpace=wrap;html=1;align=center;" parent="1" vertex="1">
          <mxGeometry x="360" y="600" width="100" height="40" as="geometry" />
        </mxCell>
        <mxCell id="YkJlxvteugCw9PptVSyT-58" value="Vdr_state" style="whiteSpace=wrap;html=1;align=center;" parent="1" vertex="1">
          <mxGeometry x="460" y="600" width="100" height="40" as="geometry" />
        </mxCell>
        <mxCell id="YkJlxvteugCw9PptVSyT-60" value="Vdr_first" style="whiteSpace=wrap;html=1;align=center;" parent="1" vertex="1">
          <mxGeometry x="560" y="600" width="100" height="40" as="geometry" />
        </mxCell>
        <mxCell id="YkJlxvteugCw9PptVSyT-61" value="Vdr_middle" style="whiteSpace=wrap;html=1;align=center;" parent="1" vertex="1">
          <mxGeometry x="660" y="600" width="100" height="40" as="geometry" />
        </mxCell>
        <mxCell id="YkJlxvteugCw9PptVSyT-62" value="Vdr_last" style="whiteSpace=wrap;html=1;align=center;" parent="1" vertex="1">
          <mxGeometry x="760" y="600" width="100" height="40" as="geometry" />
        </mxCell>
        <mxCell id="l4CQ82CaiW6vxBTYUSVt-2" value="" style="curved=1;endArrow=classic;html=1;rounded=0;exitX=0.75;exitY=0;exitDx=0;exitDy=0;entryX=0.25;entryY=0;entryDx=0;entryDy=0;" parent="1" source="YkJlxvteugCw9PptVSyT-7" target="YkJlxvteugCw9PptVSyT-8" edge="1">
          <mxGeometry width="50" height="50" relative="1" as="geometry">
            <mxPoint x="610" y="200" as="sourcePoint" />
            <mxPoint x="660" y="150" as="targetPoint" />
            <Array as="points">
              <mxPoint x="270" y="90" />
            </Array>
          </mxGeometry>
        </mxCell>
        <mxCell id="l4CQ82CaiW6vxBTYUSVt-3" value="" style="curved=1;endArrow=classic;html=1;rounded=0;exitX=0.25;exitY=0;exitDx=0;exitDy=0;entryX=0.25;entryY=0;entryDx=0;entryDy=0;" parent="1" target="YkJlxvteugCw9PptVSyT-9" edge="1">
          <mxGeometry width="50" height="50" relative="1" as="geometry">
            <mxPoint x="230" y="120" as="sourcePoint" />
            <mxPoint x="330" y="120" as="targetPoint" />
            <Array as="points">
              <mxPoint x="275" y="60" />
            </Array>
          </mxGeometry>
        </mxCell>
        <mxCell id="l4CQ82CaiW6vxBTYUSVt-4" value="" style="curved=1;endArrow=classic;html=1;rounded=0;entryX=0.25;entryY=0;entryDx=0;entryDy=0;" parent="1" target="YkJlxvteugCw9PptVSyT-10" edge="1">
          <mxGeometry width="50" height="50" relative="1" as="geometry">
            <mxPoint x="220" y="120" as="sourcePoint" />
            <mxPoint x="375" y="120" as="targetPoint" />
            <Array as="points">
              <mxPoint x="265" y="60" />
              <mxPoint x="370" y="80" />
            </Array>
          </mxGeometry>
        </mxCell>
        <mxCell id="l4CQ82CaiW6vxBTYUSVt-8" value="" style="curved=1;endArrow=classic;html=1;rounded=0;exitX=0.75;exitY=1;exitDx=0;exitDy=0;entryX=0.5;entryY=1;entryDx=0;entryDy=0;" parent="1" source="YkJlxvteugCw9PptVSyT-7" target="YkJlxvteugCw9PptVSyT-29" edge="1">
          <mxGeometry width="50" height="50" relative="1" as="geometry">
            <mxPoint x="610" y="200" as="sourcePoint" />
            <mxPoint x="660" y="150" as="targetPoint" />
            <Array as="points">
              <mxPoint x="410" y="200" />
              <mxPoint x="580" y="180" />
            </Array>
          </mxGeometry>
        </mxCell>
        <mxCell id="l4CQ82CaiW6vxBTYUSVt-9" value="" style="curved=1;endArrow=classic;html=1;rounded=0;exitX=0.75;exitY=1;exitDx=0;exitDy=0;entryX=0.25;entryY=1;entryDx=0;entryDy=0;" parent="1" target="YkJlxvteugCw9PptVSyT-30" edge="1">
          <mxGeometry width="50" height="50" relative="1" as="geometry">
            <mxPoint x="220" y="160" as="sourcePoint" />
            <mxPoint x="595" y="160" as="targetPoint" />
            <Array as="points">
              <mxPoint x="395" y="220" />
              <mxPoint x="580" y="200" />
            </Array>
          </mxGeometry>
        </mxCell>
        <mxCell id="l4CQ82CaiW6vxBTYUSVt-13" value="" style="curved=1;endArrow=classic;html=1;rounded=0;exitX=0.25;exitY=0;exitDx=0;exitDy=0;entryX=0.25;entryY=0;entryDx=0;entryDy=0;" parent="1" edge="1">
          <mxGeometry width="50" height="50" relative="1" as="geometry">
            <mxPoint x="220" y="240" as="sourcePoint" />
            <mxPoint x="300" y="240.0000000000001" as="targetPoint" />
            <Array as="points">
              <mxPoint x="265" y="180" />
            </Array>
          </mxGeometry>
        </mxCell>
        <mxCell id="l4CQ82CaiW6vxBTYUSVt-17" value="" style="curved=1;endArrow=classic;html=1;rounded=0;exitX=0.25;exitY=0;exitDx=0;exitDy=0;entryX=0.25;entryY=0;entryDx=0;entryDy=0;" parent="1" edge="1">
          <mxGeometry width="50" height="50" relative="1" as="geometry">
            <mxPoint x="910" y="360" as="sourcePoint" />
            <mxPoint x="990" y="360.0000000000001" as="targetPoint" />
            <Array as="points">
              <mxPoint x="955" y="300" />
            </Array>
          </mxGeometry>
        </mxCell>
        <mxCell id="l4CQ82CaiW6vxBTYUSVt-18" value="" style="curved=1;endArrow=classic;html=1;rounded=0;exitX=0.25;exitY=0;exitDx=0;exitDy=0;entryX=0.25;entryY=0;entryDx=0;entryDy=0;" parent="1" edge="1">
          <mxGeometry width="50" height="50" relative="1" as="geometry">
            <mxPoint x="910" y="480" as="sourcePoint" />
            <mxPoint x="990" y="480.0000000000001" as="targetPoint" />
            <Array as="points">
              <mxPoint x="955" y="420" />
            </Array>
          </mxGeometry>
        </mxCell>
        <mxCell id="l4CQ82CaiW6vxBTYUSVt-21" value="" style="curved=1;endArrow=classic;html=1;rounded=0;exitX=0.75;exitY=0;exitDx=0;exitDy=0;entryX=0.25;entryY=0;entryDx=0;entryDy=0;" parent="1" edge="1">
          <mxGeometry width="50" height="50" relative="1" as="geometry">
            <mxPoint x="235" y="480" as="sourcePoint" />
            <mxPoint x="285" y="480" as="targetPoint" />
            <Array as="points">
              <mxPoint x="270" y="450" />
            </Array>
          </mxGeometry>
        </mxCell>
        <mxCell id="l4CQ82CaiW6vxBTYUSVt-22" value="" style="curved=1;endArrow=classic;html=1;rounded=0;exitX=0.25;exitY=0;exitDx=0;exitDy=0;entryX=0.25;entryY=0;entryDx=0;entryDy=0;" parent="1" edge="1">
          <mxGeometry width="50" height="50" relative="1" as="geometry">
            <mxPoint x="230" y="480" as="sourcePoint" />
            <mxPoint x="385" y="480" as="targetPoint" />
            <Array as="points">
              <mxPoint x="275" y="420" />
            </Array>
          </mxGeometry>
        </mxCell>
        <mxCell id="l4CQ82CaiW6vxBTYUSVt-23" value="" style="curved=1;endArrow=classic;html=1;rounded=0;entryX=0.25;entryY=0;entryDx=0;entryDy=0;" parent="1" edge="1">
          <mxGeometry width="50" height="50" relative="1" as="geometry">
            <mxPoint x="220" y="480" as="sourcePoint" />
            <mxPoint x="485" y="480" as="targetPoint" />
            <Array as="points">
              <mxPoint x="265" y="420" />
              <mxPoint x="370" y="440" />
            </Array>
          </mxGeometry>
        </mxCell>
        <mxCell id="l4CQ82CaiW6vxBTYUSVt-24" value="" style="curved=1;endArrow=classic;html=1;rounded=0;exitX=0.75;exitY=1;exitDx=0;exitDy=0;entryX=0.5;entryY=1;entryDx=0;entryDy=0;" parent="1" edge="1">
          <mxGeometry width="50" height="50" relative="1" as="geometry">
            <mxPoint x="220" y="520" as="sourcePoint" />
            <mxPoint x="595" y="520" as="targetPoint" />
            <Array as="points">
              <mxPoint x="395" y="560" />
              <mxPoint x="565" y="540" />
            </Array>
          </mxGeometry>
        </mxCell>
        <mxCell id="l4CQ82CaiW6vxBTYUSVt-26" value="" style="curved=1;endArrow=classic;html=1;rounded=0;exitX=0.75;exitY=0;exitDx=0;exitDy=0;" parent="1" source="YkJlxvteugCw9PptVSyT-55" edge="1">
          <mxGeometry width="50" height="50" relative="1" as="geometry">
            <mxPoint x="610" y="480" as="sourcePoint" />
            <mxPoint x="285" y="600" as="targetPoint" />
            <Array as="points">
              <mxPoint x="270" y="580" />
            </Array>
          </mxGeometry>
        </mxCell>
        <mxCell id="l4CQ82CaiW6vxBTYUSVt-27" value="" style="curved=1;endArrow=classic;html=1;rounded=0;entryX=0.25;entryY=0;entryDx=0;entryDy=0;exitX=0.5;exitY=0;exitDx=0;exitDy=0;" parent="1" source="YkJlxvteugCw9PptVSyT-55" target="YkJlxvteugCw9PptVSyT-57" edge="1">
          <mxGeometry width="50" height="50" relative="1" as="geometry">
            <mxPoint x="245" y="610" as="sourcePoint" />
            <mxPoint x="295" y="610" as="targetPoint" />
            <Array as="points">
              <mxPoint x="270" y="560" />
            </Array>
          </mxGeometry>
        </mxCell>
        <mxCell id="l4CQ82CaiW6vxBTYUSVt-28" value="" style="curved=1;endArrow=classic;html=1;rounded=0;entryX=0.25;entryY=0;entryDx=0;entryDy=0;exitX=0.5;exitY=0;exitDx=0;exitDy=0;" parent="1" target="YkJlxvteugCw9PptVSyT-58" edge="1">
          <mxGeometry width="50" height="50" relative="1" as="geometry">
            <mxPoint x="200" y="600" as="sourcePoint" />
            <mxPoint x="375" y="600" as="targetPoint" />
            <Array as="points">
              <mxPoint x="260" y="550" />
            </Array>
          </mxGeometry>
        </mxCell>
        <mxCell id="l4CQ82CaiW6vxBTYUSVt-40" value="" style="curved=1;endArrow=classic;html=1;rounded=0;entryX=0.5;entryY=1;entryDx=0;entryDy=0;exitX=0.75;exitY=1;exitDx=0;exitDy=0;" parent="1" edge="1" target="YkJlxvteugCw9PptVSyT-60">
          <mxGeometry width="50" height="50" relative="1" as="geometry">
            <mxPoint x="245" y="640" as="sourcePoint" />
            <mxPoint x="645" y="640" as="targetPoint" />
            <Array as="points">
              <mxPoint x="490" y="680" />
            </Array>
          </mxGeometry>
        </mxCell>
        <mxCell id="l4CQ82CaiW6vxBTYUSVt-41" value="" style="curved=1;endArrow=classic;html=1;rounded=0;entryX=0.5;entryY=1;entryDx=0;entryDy=0;exitX=0.5;exitY=1;exitDx=0;exitDy=0;" parent="1" edge="1" target="YkJlxvteugCw9PptVSyT-61">
          <mxGeometry width="50" height="50" relative="1" as="geometry">
            <mxPoint x="230" y="640" as="sourcePoint" />
            <mxPoint x="730" y="640" as="targetPoint" />
            <Array as="points">
              <mxPoint x="520" y="710" />
            </Array>
          </mxGeometry>
        </mxCell>
        <mxCell id="l4CQ82CaiW6vxBTYUSVt-42" value="" style="curved=1;endArrow=classic;html=1;rounded=0;entryX=0.5;entryY=1;entryDx=0;entryDy=0;exitX=0.5;exitY=1;exitDx=0;exitDy=0;" parent="1" edge="1" target="YkJlxvteugCw9PptVSyT-62">
          <mxGeometry width="50" height="50" relative="1" as="geometry">
            <mxPoint x="210" y="640" as="sourcePoint" />
            <mxPoint x="830" y="640" as="targetPoint" />
            <Array as="points">
              <mxPoint x="500" y="730" />
            </Array>
          </mxGeometry>
        </mxCell>
        <mxCell id="bpA1N5vGVymYkkaIcxmK-6" value="L9: ADDRESS1" style="text;html=1;align=center;verticalAlign=middle;resizable=0;points=[];autosize=1;strokeColor=none;fillColor=none;" parent="1" vertex="1">
          <mxGeometry x="50" y="843.5" width="110" height="30" as="geometry" />
        </mxCell>
        <mxCell id="bpA1N5vGVymYkkaIcxmK-9" value="&lt;u&gt;Addr_vdr_city&lt;/u&gt;" style="whiteSpace=wrap;html=1;align=center;" parent="1" vertex="1">
          <mxGeometry x="160" y="838.5" width="110" height="40" as="geometry" />
        </mxCell>
        <mxCell id="bpA1N5vGVymYkkaIcxmK-10" value="&lt;u&gt;Addr_vdr_state&lt;/u&gt;" style="whiteSpace=wrap;html=1;align=center;" parent="1" vertex="1">
          <mxGeometry x="270" y="838.5" width="110" height="40" as="geometry" />
        </mxCell>
        <mxCell id="bpA1N5vGVymYkkaIcxmK-11" value="Addr_vdr_zip" style="whiteSpace=wrap;html=1;align=center;" parent="1" vertex="1">
          <mxGeometry x="380" y="838.5" width="100" height="40" as="geometry" />
        </mxCell>
        <mxCell id="bpA1N5vGVymYkkaIcxmK-12" value="" style="curved=1;endArrow=classic;html=1;rounded=0;exitX=0.5;exitY=0;exitDx=0;exitDy=0;entryX=0.4;entryY=0;entryDx=0;entryDy=0;entryPerimeter=0;" parent="1" source="bpA1N5vGVymYkkaIcxmK-11" target="bpA1N5vGVymYkkaIcxmK-9" edge="1">
          <mxGeometry width="50" height="50" relative="1" as="geometry">
            <mxPoint x="365" y="838.5" as="sourcePoint" />
            <mxPoint x="415" y="788.5" as="targetPoint" />
            <Array as="points">
              <mxPoint x="380" y="818.5" />
              <mxPoint x="320" y="808.5" />
            </Array>
          </mxGeometry>
        </mxCell>
        <mxCell id="bpA1N5vGVymYkkaIcxmK-13" value="" style="curved=1;endArrow=classic;html=1;rounded=0;exitX=0.25;exitY=0;exitDx=0;exitDy=0;entryX=0.5;entryY=0;entryDx=0;entryDy=0;" parent="1" source="bpA1N5vGVymYkkaIcxmK-11" target="bpA1N5vGVymYkkaIcxmK-10" edge="1">
          <mxGeometry width="50" height="50" relative="1" as="geometry">
            <mxPoint x="420" y="848.5" as="sourcePoint" />
            <mxPoint x="210" y="848.5" as="targetPoint" />
            <Array as="points">
              <mxPoint x="340" y="818.5" />
            </Array>
          </mxGeometry>
        </mxCell>
        <mxCell id="bpA1N5vGVymYkkaIcxmK-21" value="L8: ADDRESS0" style="text;html=1;align=center;verticalAlign=middle;resizable=0;points=[];autosize=1;strokeColor=none;fillColor=none;" parent="1" vertex="1">
          <mxGeometry x="50" y="723.5" width="110" height="30" as="geometry" />
        </mxCell>
        <mxCell id="bpA1N5vGVymYkkaIcxmK-23" value="&lt;u&gt;Addr_vdr_street&lt;/u&gt;" style="whiteSpace=wrap;html=1;align=center;" parent="1" vertex="1">
          <mxGeometry x="160" y="718.5" width="120" height="40" as="geometry" />
        </mxCell>
        <mxCell id="bpA1N5vGVymYkkaIcxmK-24" value="&lt;u&gt;Addr_vdr_city&lt;/u&gt;" style="whiteSpace=wrap;html=1;align=center;" parent="1" vertex="1">
          <mxGeometry x="280" y="718.5" width="110" height="40" as="geometry" />
        </mxCell>
        <mxCell id="bpA1N5vGVymYkkaIcxmK-25" value="&lt;u&gt;Addr_vdr_state&lt;/u&gt;" style="whiteSpace=wrap;html=1;align=center;" parent="1" vertex="1">
          <mxGeometry x="390" y="718.5" width="110" height="40" as="geometry" />
        </mxCell>
        <mxCell id="bpA1N5vGVymYkkaIcxmK-26" value="Addr_vdr_zip" style="whiteSpace=wrap;html=1;align=center;" parent="1" vertex="1">
          <mxGeometry x="500" y="718.5" width="100" height="40" as="geometry" />
        </mxCell>
        <mxCell id="bpA1N5vGVymYkkaIcxmK-32" style="edgeStyle=orthogonalEdgeStyle;rounded=0;orthogonalLoop=1;jettySize=auto;html=1;exitX=1;exitY=0.5;exitDx=0;exitDy=0;exitPerimeter=0;entryX=0.5;entryY=0;entryDx=0;entryDy=0;" parent="1" source="bpA1N5vGVymYkkaIcxmK-29" target="bpA1N5vGVymYkkaIcxmK-26" edge="1">
          <mxGeometry relative="1" as="geometry">
            <Array as="points">
              <mxPoint x="325" y="700" />
              <mxPoint x="550" y="700" />
            </Array>
          </mxGeometry>
        </mxCell>
        <mxCell id="bpA1N5vGVymYkkaIcxmK-29" value="" style="shape=requiredInterface;html=1;verticalLabelPosition=bottom;sketch=0;rotation=-90;" parent="1" vertex="1">
          <mxGeometry x="319.38" y="597.88" width="11.25" height="230" as="geometry" />
        </mxCell>
        <mxCell id="bpA1N5vGVymYkkaIcxmK-45" style="edgeStyle=orthogonalEdgeStyle;rounded=0;orthogonalLoop=1;jettySize=auto;html=1;exitX=1;exitY=0.5;exitDx=0;exitDy=0;exitPerimeter=0;" parent="1" source="bpA1N5vGVymYkkaIcxmK-44" edge="1">
          <mxGeometry relative="1" as="geometry">
            <mxPoint x="420" y="360" as="targetPoint" />
            <Array as="points">
              <mxPoint x="262" y="330" />
              <mxPoint x="420" y="330" />
            </Array>
          </mxGeometry>
        </mxCell>
        <mxCell id="bpA1N5vGVymYkkaIcxmK-44" value="" style="shape=requiredInterface;html=1;verticalLabelPosition=bottom;sketch=0;rotation=-90;" parent="1" vertex="1">
          <mxGeometry x="255" y="278" width="15" height="150" as="geometry" />
        </mxCell>
        <mxCell id="bpA1N5vGVymYkkaIcxmK-46" value="Extprj_vdr_name" style="whiteSpace=wrap;html=1;align=center;" parent="1" vertex="1">
          <mxGeometry x="1050" y="480" width="100" height="40" as="geometry" />
        </mxCell>
        <mxCell id="bpA1N5vGVymYkkaIcxmK-47" value="" style="curved=1;endArrow=classic;html=1;rounded=0;exitX=0.5;exitY=1;exitDx=0;exitDy=0;entryX=0.25;entryY=1;entryDx=0;entryDy=0;" parent="1" source="YkJlxvteugCw9PptVSyT-43" target="bpA1N5vGVymYkkaIcxmK-46" edge="1">
          <mxGeometry width="50" height="50" relative="1" as="geometry">
            <mxPoint x="920" y="560" as="sourcePoint" />
            <mxPoint x="1000" y="560.0000000000001" as="targetPoint" />
            <Array as="points">
              <mxPoint x="980" y="570" />
            </Array>
          </mxGeometry>
        </mxCell>
        <mxCell id="bpA1N5vGVymYkkaIcxmK-48" value="Intprj_mngr_emp_id" style="whiteSpace=wrap;html=1;align=center;" parent="1" vertex="1">
          <mxGeometry x="1055" y="360" width="115" height="40" as="geometry" />
        </mxCell>
        <mxCell id="bpA1N5vGVymYkkaIcxmK-49" value="" style="curved=1;endArrow=classic;html=1;rounded=0;exitX=0.5;exitY=1;exitDx=0;exitDy=0;entryX=0.25;entryY=1;entryDx=0;entryDy=0;" parent="1" source="YkJlxvteugCw9PptVSyT-42" target="bpA1N5vGVymYkkaIcxmK-48" edge="1">
          <mxGeometry width="50" height="50" relative="1" as="geometry">
            <mxPoint x="900" y="400" as="sourcePoint" />
            <mxPoint x="1085" y="400" as="targetPoint" />
            <Array as="points">
              <mxPoint x="990" y="450" />
            </Array>
          </mxGeometry>
        </mxCell>
      </root>
    </mxGraphModel>
  </diagram>
</mxfile>
